<svg xmlns="http://www.w3.org/2000/svg" width="1000" height="560" viewBox="0 0 1000 560" role="img" aria-labelledby="title desc">
<title id="title">Factory electrification, secondary motors, and manufacturing TFP growth</title>
<desc id="desc">Line chart comparing factory drive electrified, secondary motor penetration, and manufacturing TFP growth.</desc>
<style>.bg{fill:#f8fafc}.grid{stroke:#d7e1ec;stroke-width:1}.axisline{stroke:#64748b;stroke-width:1.2}.axis{font-family:Inter,system-ui,sans-serif;font-size:12px;fill:#475569}.title{font-family:Inter,system-ui,sans-serif;font-size:21px;font-weight:800;fill:#0f172a}.subtitle{font-family:Inter,system-ui,sans-serif;font-size:12px;fill:#475569}.label{font-family:Inter,system-ui,sans-serif;font-size:12px;font-weight:800;fill:#0f172a}.small{font-family:Inter,system-ui,sans-serif;font-size:10.5px;fill:#475569}.bar{fill:#94a3b8;opacity:.8}.bar.early{fill:#64748b;opacity:.9}.bar.hot{fill:#0f766e;opacity:.95}.barlabel{font-family:Inter,system-ui,sans-serif;font-size:11px;font-weight:800;fill:#0f172a}.period{font-family:Inter,system-ui,sans-serif;font-size:9.5px;fill:#475569}.line1{fill:none;stroke:#0f766e;stroke-width:3.5;stroke-linecap:round;stroke-linejoin:round}.line2{fill:none;stroke:#c2410c;stroke-width:3.5;stroke-linecap:round;stroke-linejoin:round}.dot1{fill:#0f766e}.dot2{fill:#c2410c}.shade{fill:#d1fae5;opacity:.48}.note{fill:#fff7ed;stroke:#fdba74;stroke-width:1}.note2{fill:#ecfdf5;stroke:#5eead4;stroke-width:1}</style>
<rect width="1000" height="560" class="bg"/>
<text x="72" y="34" class="title">Factory electrification lines up with the 1920s, not the 1880s</text>
<text x="72" y="54" class="subtitle">Lines = electrification diffusion (left axis). Bars = manufacturing TFP growth, %/yr (right axis).</text>
<text x="72" y="76" class="axis">Left: diffusion share</text><text x="928" y="76" class="axis" text-anchor="end">Right: TFP growth</text>
<rect x="785.3" y="86" width="142.7" height="378" class="shade"/>
<line x1="72" y1="464.0" x2="928" y2="464.0" class="grid"/><text x="62" y="469.0" class="axis" text-anchor="end">0%</text>
<line x1="72" y1="369.5" x2="928" y2="369.5" class="grid"/><text x="62" y="374.5" class="axis" text-anchor="end">20%</text>
<line x1="72" y1="275.0" x2="928" y2="275.0" class="grid"/><text x="62" y="280.0" class="axis" text-anchor="end">40%</text>
<line x1="72" y1="180.5" x2="928" y2="180.5" class="grid"/><text x="62" y="185.5" class="axis" text-anchor="end">60%</text>
<line x1="72" y1="86.0" x2="928" y2="86.0" class="grid"/><text x="62" y="91.0" class="axis" text-anchor="end">80%</text><text x="938" y="469.0" class="axis">0%</text>
<text x="938" y="343.0" class="axis">2%</text>
<text x="938" y="217.0" class="axis">4%</text>
<text x="938" y="91.0" class="axis">6%</text><line x1="72" y1="86" x2="72" y2="464" class="axisline"/><line x1="928" y1="86" x2="928" y2="464" class="axisline"/><line x1="72" y1="464" x2="928" y2="464" class="axisline"/><text x="72.0" y="489" class="axis" text-anchor="middle">1869</text>
<text x="214.7" y="489" class="axis" text-anchor="middle">1879</text>
<text x="357.3" y="489" class="axis" text-anchor="middle">1889</text>
<text x="500.0" y="489" class="axis" text-anchor="middle">1899</text>
<text x="642.7" y="489" class="axis" text-anchor="middle">1909</text>
<text x="785.3" y="489" class="axis" text-anchor="middle">1919</text>
<text x="928.0" y="489" class="axis" text-anchor="middle">1929</text>
<rect x="126.3" y="444.5" width="34" height="19.5" class="bar"/><text x="143.3" y="438.5" class="barlabel" text-anchor="middle">0.31</text><text x="143.3" y="511" class="period" text-anchor="middle">1869–1879</text>
<rect x="269.0" y="386.5" width="34" height="77.5" class="bar early"/><text x="286.0" y="380.5" class="barlabel" text-anchor="middle">1.23</text><text x="286.0" y="511" class="period" text-anchor="middle">1879–1889</text>
<rect x="411.7" y="409.8" width="34" height="54.2" class="bar"/><text x="428.7" y="403.8" class="barlabel" text-anchor="middle">0.86</text><text x="428.7" y="511" class="period" text-anchor="middle">1889–1899</text>
<rect x="554.3" y="432.5" width="34" height="31.5" class="bar"/><text x="571.3" y="426.5" class="barlabel" text-anchor="middle">0.50</text><text x="571.3" y="511" class="period" text-anchor="middle">1899–1909</text>
<rect x="697.0" y="453.3" width="34" height="10.7" class="bar"/><text x="714.0" y="447.3" class="barlabel" text-anchor="middle">0.17</text><text x="714.0" y="511" class="period" text-anchor="middle">1909–1919</text>
<rect x="839.7" y="130.7" width="34" height="333.3" class="bar hot"/><text x="856.7" y="124.7" class="barlabel" text-anchor="middle">5.29</text><text x="856.7" y="511" class="period" text-anchor="middle">1919–1929</text><path d="M 357.3 462.6 L 500.0 441.3 L 571.3 409.7 L 642.7 347.3 L 714.0 286.3 L 785.3 213.1 L 856.7 147.0 L 928.0 93.6" class="line1"/><path d="M 357.3 462.6 L 500.0 449.8 L 571.3 423.8 L 642.7 382.3 L 714.0 344.9 L 785.3 310.0 L 856.7 251.4 L 928.0 197.5" class="line2"/><circle cx="357.3" cy="462.6" r="4.2" class="dot1"/><circle cx="357.3" cy="462.6" r="4.2" class="dot2"/><circle cx="500.0" cy="441.3" r="4.2" class="dot1"/><circle cx="500.0" cy="449.8" r="4.2" class="dot2"/><circle cx="571.3" cy="409.7" r="4.2" class="dot1"/><circle cx="571.3" cy="423.8" r="4.2" class="dot2"/><circle cx="642.7" cy="347.3" r="4.2" class="dot1"/><circle cx="642.7" cy="382.3" r="4.2" class="dot2"/><circle cx="714.0" cy="286.3" r="4.2" class="dot1"/><circle cx="714.0" cy="344.9" r="4.2" class="dot2"/><circle cx="785.3" cy="213.1" r="4.2" class="dot1"/><circle cx="785.3" cy="310.0" r="4.2" class="dot2"/><circle cx="856.7" cy="147.0" r="4.2" class="dot1"/><circle cx="856.7" cy="251.4" r="4.2" class="dot2"/><circle cx="928.0" cy="93.6" r="4.2" class="dot1"/><circle cx="928.0" cy="197.5" r="4.2" class="dot2"/>
<rect x="90" y="101" width="245" height="54" rx="7" class="note"/><text x="103" y="122" class="label">1880s TFP growth exists</text><text x="103" y="139" class="small">but factory electrification is ~0.3% in 1889,</text><text x="103" y="153" class="small">so this is not electricity-specific payoff.</text>
<rect x="598" y="101" width="315" height="68" rx="7" class="note2"/><text x="611" y="122" class="label">1920s: diffusion + mechanism + TFP surge</text><text x="611" y="139" class="small">factory drive: 53% → 78%; secondary: 33% → 56%</text><text x="611" y="153" class="small">David links about half of the acceleration statistically.</text>
<g transform="translate(90,538)"><line x1="0" y1="0" x2="28" y2="0" class="line1"/><text x="36" y="4" class="small">Factory drive electrified</text><line x1="205" y1="0" x2="233" y2="0" class="line2"/><text x="241" y="4" class="small">Secondary motor penetration</text><rect x="430" y="-8" width="16" height="12" class="bar hot"/><text x="455" y="4" class="small">TFP growth bar</text></g>
</svg>