<svg width="100%" viewBox="0 0 680 380" role="img" xmlns="http://www.w3.org/2000/svg">
<title>How a line-shaft (group drive) factory delivers power</title>
<desc>One electric motor turns a long overhead line shaft via a belt; pulleys on the shaft drop leather belts down to each machine on the floor, so a single motor drives a whole group of machines.</desc>
<defs>
<marker id="arrow" viewBox="0 0 10 10" refX="8" refY="5" markerWidth="6" markerHeight="6" orient="auto-start-reverse"><path d="M2 1L8 5L2 9" fill="none" stroke="context-stroke" stroke-width="1.5" stroke-linecap="round" stroke-linejoin="round"/></marker>
<mask id="imagine-text-gaps-dq7uhq" maskUnits="userSpaceOnUse"><rect x="0" y="0" width="680" height="380" fill="white"/><rect x="552" y="74.3260726928711" width="73.04353332519531" height="20.630449295043945" fill="black" rx="2"/><rect x="552" y="92.54346466064453" width="77.57071685791016" height="18.043490409851074" fill="black" rx="2"/><rect x="552" y="162.32608032226562" width="87.23139190673828" height="20.630449295043945" fill="black" rx="2"/><rect x="552" y="180.54347229003906" width="74.36011505126953" height="18.043490409851074" fill="black" rx="2"/><rect x="552" y="254.32608032226562" width="63.792850494384766" height="20.630449295043945" fill="black" rx="2"/><rect x="552" y="272.54345703125" width="73.5054931640625" height="18.043490409851074" fill="black" rx="2"/><rect x="43.62528991699219" y="322.3260803222656" width="100.74940490722656" height="20.630449295043945" fill="black" rx="2"/><rect x="43.769649505615234" y="340.54345703125" width="100.46067810058594" height="18.043490409851074" fill="black" rx="2"/></mask></defs>

<line x1="100" y1="60" x2="540" y2="60" stroke="#73726c" stroke-width="1"/>
<line x1="140" y1="60" x2="140" y2="100" stroke="#73726c" stroke-width="1"/>
<line x1="240" y1="60" x2="240" y2="100" stroke="#73726c" stroke-width="1"/>
<line x1="350" y1="60" x2="350" y2="100" stroke="#73726c" stroke-width="1"/>
<line x1="460" y1="60" x2="460" y2="100" stroke="#73726c" stroke-width="1"/>

<line x1="110" y1="100" x2="512" y2="100" stroke="#141413" stroke-width="5" stroke-linecap="round"/>
<ellipse cx="180" cy="100" rx="5" ry="11" fill="none" stroke="#141413" stroke-width="1.5"/>
<ellipse cx="290" cy="100" rx="5" ry="11" fill="none" stroke="#141413" stroke-width="1.5"/>
<ellipse cx="400" cy="100" rx="5" ry="11" fill="none" stroke="#141413" stroke-width="1.5"/>
<ellipse cx="470" cy="100" rx="5" ry="11" fill="none" stroke="#141413" stroke-width="1.5"/>

<line x1="94" y1="248" x2="176" y2="108" stroke="#3d3d3a" stroke-width="1.4" stroke-dasharray="5 4"/>
<rect x="58" y="248" width="72" height="66" rx="4" fill="#faece7" stroke="#993c1d" stroke-width="0.5"/>

<line x1="180" y1="111" x2="187" y2="256" stroke="#3d3d3a" stroke-width="1.4"/>
<line x1="290" y1="111" x2="291" y2="256" stroke="#3d3d3a" stroke-width="1.4"/>
<line x1="400" y1="111" x2="395" y2="256" stroke="#3d3d3a" stroke-width="1.4"/>
<line x1="470" y1="111" x2="477" y2="256" stroke="#3d3d3a" stroke-width="1.4"/>

<rect x="158" y="256" width="58" height="56" rx="4" fill="#f5f4ed" stroke="#141413" stroke-width="1"/>
<rect x="262" y="256" width="58" height="56" rx="4" fill="#f5f4ed" stroke="#141413" stroke-width="1"/>
<rect x="366" y="256" width="58" height="56" rx="4" fill="#f5f4ed" stroke="#141413" stroke-width="1"/>
<rect x="450" y="256" width="54" height="56" rx="4" fill="#f5f4ed" stroke="#141413" stroke-width="1"/>

<line x1="50" y1="312" x2="545" y2="312" stroke="#141413" stroke-width="2" stroke-linecap="round"/>

<line x1="552" y1="92" x2="512" y2="100" mask="url(#imagine-text-gaps-dq7uhq)" stroke="#73726c" stroke-width="0.5" stroke-dasharray="4 3" fill="none"/>
<circle cx="512" cy="100" r="2" fill="#73726c"/>
<text x="556" y="90" font-family="Inter, system-ui, sans-serif" font-size="14" font-weight="500" fill="#141413">Line shaft</text>
<text x="556" y="106" font-family="Inter, system-ui, sans-serif" font-size="12" fill="#3d3d3a">spins all day</text>

<line x1="552" y1="180" x2="473" y2="184" mask="url(#imagine-text-gaps-dq7uhq)" stroke="#73726c" stroke-width="0.5" stroke-dasharray="4 3" fill="none"/>
<circle cx="473" cy="184" r="2" fill="#73726c"/>
<text x="556" y="178" font-family="Inter, system-ui, sans-serif" font-size="14" font-weight="500" fill="#141413">Leather belt</text>
<text x="556" y="194" font-family="Inter, system-ui, sans-serif" font-size="12" fill="#3d3d3a">drops down</text>

<line x1="552" y1="272" x2="504" y2="280" mask="url(#imagine-text-gaps-dq7uhq)" stroke="#73726c" stroke-width="0.5" stroke-dasharray="4 3" fill="none"/>
<circle cx="504" cy="280" r="2" fill="#73726c"/>
<text x="556" y="270" font-family="Inter, system-ui, sans-serif" font-size="14" font-weight="500" fill="#141413">Machine</text>
<text x="556" y="286" font-family="Inter, system-ui, sans-serif" font-size="12" fill="#3d3d3a">lathe, drill…</text>

<text x="94" y="338" text-anchor="middle" font-family="Inter, system-ui, sans-serif" font-size="14" font-weight="500" fill="#141413">Electric motor</text>
<text x="94" y="354" text-anchor="middle" font-family="Inter, system-ui, sans-serif" font-size="12" fill="#3d3d3a">drives the group</text>
</svg>
