<svg xmlns="http://www.w3.org/2000/svg" width="1200" height="560" viewBox="0 0 1200 560" role="img" aria-labelledby="title desc">
  <title id="title">U.S. manufacturing TFP growth during the electrification era</title>
  <desc id="desc">Bar chart of average annual U.S. manufacturing total factor productivity growth by period from 1869 to 1948. Growth is low before 1919 and rises sharply in 1919-1929.</desc>
  <defs>
    <style>
      .bg{fill:#f8fafc}
      .axis{stroke:#334155;stroke-width:2}
      .grid{stroke:#cbd5e1;stroke-width:1}
      .bar{fill:#94a3b8}
      .bar-hi{fill:#0f766e}
      .title{font-family:Inter,Arial,sans-serif;font-size:30px;font-weight:800;fill:#0f172a}
      .subtitle{font-family:Inter,Arial,sans-serif;font-size:15px;fill:#475569}
      .label{font-family:Inter,Arial,sans-serif;font-size:13px;fill:#334155}
      .value{font-family:Inter,Arial,sans-serif;font-size:14px;font-weight:800;fill:#0f172a}
      .value-hi{font-family:Inter,Arial,sans-serif;font-size:17px;font-weight:900;fill:#0f766e}
      .note{font-family:Inter,Arial,sans-serif;font-size:13px;fill:#64748b}
      .callout{font-family:Inter,Arial,sans-serif;font-size:17px;font-weight:800;fill:#0f766e}
    </style>
  </defs>

  <rect class="bg" width="1200" height="560"/>
  <text class="title" x="72" y="48">The productivity surge shows up in TFP, not in the diffusion curve</text>
  <text class="subtitle" x="72" y="76">Average annual U.S. manufacturing TFP growth, percent per year</text>

  <!-- plot area: x 120..1090, y 100..420, max 6% -->
  <line class="axis" x1="120" y1="420" x2="1090" y2="420"/>
  <line class="axis" x1="120" y1="95" x2="120" y2="420"/>

  <g>
    <line class="grid" x1="120" y1="420" x2="1090" y2="420"/>
    <line class="grid" x1="120" y1="312" x2="1090" y2="312"/>
    <line class="grid" x1="120" y1="203" x2="1090" y2="203"/>
    <line class="grid" x1="120" y1="95" x2="1090" y2="95"/>
    <text class="label" x="86" y="425">0%</text>
    <text class="label" x="86" y="317">2%</text>
    <text class="label" x="86" y="208">4%</text>
    <text class="label" x="86" y="100">6%</text>
  </g>

  <!-- bars: y = 420 - value / 6 * 325 -->
  <g>
    <rect class="bar" x="150" y="403" width="68" height="17"/>
    <text class="value" x="167" y="395">0.31</text>
    <text class="label" x="143" y="450">1869-</text>
    <text class="label" x="151" y="468">1879</text>

    <rect class="bar" x="265" y="353" width="68" height="67"/>
    <text class="value" x="282" y="345">1.23</text>
    <text class="label" x="258" y="450">1879-</text>
    <text class="label" x="266" y="468">1889</text>

    <rect class="bar" x="380" y="373" width="68" height="47"/>
    <text class="value" x="397" y="365">0.86</text>
    <text class="label" x="373" y="450">1889-</text>
    <text class="label" x="381" y="468">1899</text>

    <rect class="bar" x="495" y="393" width="68" height="27"/>
    <text class="value" x="512" y="385">0.50</text>
    <text class="label" x="488" y="450">1899-</text>
    <text class="label" x="496" y="468">1909</text>

    <rect class="bar" x="610" y="411" width="68" height="9"/>
    <text class="value" x="627" y="402">0.17</text>
    <text class="label" x="603" y="450">1909-</text>
    <text class="label" x="611" y="468">1919</text>

    <rect class="bar-hi" x="725" y="134" width="68" height="286"/>
    <text class="value-hi" x="741" y="123">5.29</text>
    <text class="label" x="718" y="450">1919-</text>
    <text class="label" x="726" y="468">1929</text>

    <rect class="bar" x="840" y="314" width="68" height="106"/>
    <text class="value" x="857" y="306">1.96</text>
    <text class="label" x="833" y="450">1929-</text>
    <text class="label" x="841" y="468">1937</text>

    <rect class="bar" x="955" y="336" width="68" height="84"/>
    <text class="value" x="972" y="328">1.56</text>
    <text class="label" x="948" y="450">1937-</text>
    <text class="label" x="956" y="468">1948</text>
  </g>

  <path d="M795 170 C850 150, 900 150, 950 168" fill="none" stroke="#0f766e" stroke-width="2.5"/>
  <text class="callout" x="820" y="145">TFP acceleration, 1919-1929</text>

  <rect x="120" y="496" width="970" height="42" rx="8" fill="#ffffff" stroke="#dbe4ee"/>
  <text class="note" x="140" y="518">These are period-average growth rates, not annual observations. Use this as backup evidence that the 1920s point is about measured productivity, not a visible kink in diffusion.</text>
</svg>
